<svg width="273" height="64" viewBox="0 0 273 64" fill="none" xmlns="http://www.w3.org/2000/svg">
<path d="M70.3245 41.5141H76.6185C79.0743 41.5141 80.0081 42.3673 80.0081 44.4572C80.0081 46.4695 79.0738 47.3218 76.6185 47.3218H70.3245V41.5141ZM60.5738 62.6516H70.3249V54.0564H80.7695C87.6847 54.0564 90.1744 49.9547 90.1744 44.6517C90.1744 38.4959 87.6143 35.0125 80.6991 35.0125H60.5738V62.6516Z" fill="white"/>
<path d="M93.3902 35.0125H119.634V41.7467H103.141V45.4631H118.461V52.2001H103.141V55.916H119.634V62.6516H93.3902V35.0125Z" fill="white"/>
<path d="M133.467 41.5141H139.761C142.216 41.5141 143.15 42.3673 143.15 44.4572C143.15 46.4695 142.216 47.3218 139.761 47.3218H133.467V41.5141ZM123.716 62.6516H133.467V54.0564H143.91C150.827 54.0564 153.317 49.9547 153.317 44.6517C153.317 38.4959 150.757 35.0125 143.84 35.0125H123.716V62.6516Z" fill="white"/>
<path d="M162.755 50.9221C157.984 50.1079 156.015 47.0112 156.015 43.1412C156.015 35.9785 162.274 34.0446 170.294 34.0446C181.289 34.0446 185.82 37.2564 186.166 43.1026H174.824C174.824 41.9797 174.235 41.2815 173.338 40.8949C172.473 40.4701 171.367 40.3156 170.294 40.3156C167.39 40.3156 166.388 41.1274 166.388 42.2898C166.388 43.0627 166.698 43.5678 167.666 43.7219L179.319 45.6567C184.23 46.4695 187.273 49.0244 187.273 53.7073C187.273 60.4453 182.363 63.6195 171.4 63.6195C163.897 63.6195 155.701 62.4585 155.667 54.3289H167.424C167.457 55.2568 167.77 55.8761 168.462 56.3022C169.187 56.6899 170.259 56.8839 171.78 56.8839C174.823 56.8839 175.654 55.9541 175.654 54.6376C175.654 53.8248 175.203 53.0124 173.892 52.7813L162.755 50.9221Z" fill="white"/>
<path d="M190.453 35.0125H200.204V62.6516H190.453V35.0125Z" fill="white"/>
<path d="M236.342 51.89C235.719 55.5289 234.611 58.471 232.19 60.4833C229.806 62.4966 226.07 63.6195 220.124 63.6195C214.211 63.6195 203.249 63.1539 203.249 48.8328C203.249 34.5088 214.211 34.0442 220.124 34.0442C226.001 34.0442 235.061 34.895 236.342 45.8516H225.345C225.069 43.8755 223.891 41.0114 220.124 41.0114C216.145 41.0114 213.621 43.2177 213.621 48.8323C213.621 54.4454 216.077 56.6504 219.638 56.6504C222.717 56.6504 224.549 55.2183 225.345 51.8895H236.342V51.89Z" fill="white"/>
<path d="M249.1 48.8333C249.1 43.2182 251.625 41.0123 255.603 41.0123C259.578 41.0123 262.104 43.2187 262.104 48.8333C262.104 54.4464 259.578 56.6513 255.603 56.6513C251.625 56.6508 249.1 54.4459 249.1 48.8333ZM238.726 48.8333C238.726 63.1539 249.687 63.62 255.602 63.62C261.515 63.62 272.477 63.1543 272.477 48.8333C272.477 34.5093 261.515 34.0446 255.602 34.0446C249.687 34.0446 238.726 34.5088 238.726 48.8333Z" fill="white"/>
<path d="M45.8394 35.2865C46.469 22.026 35.1119 7.09278 19.6288 5.24694L19.6553 5.06573C34.9192 5.06573 46.6207 19.2941 46.6207 30.5189C46.606 32.8556 46.4227 34.3034 46.0959 35.3545L45.8394 35.2865ZM44.9145 36.972C43.899 38.2214 42.6218 39.4794 41.1254 40.6737C38.3725 24.7317 26.7381 10.7916 18.5126 6.72276L18.3365 6.84642C26.6087 13.6824 36.4751 26.959 40.312 41.2991C38.4764 42.6613 36.3546 43.915 34.0104 44.9328C26.2044 35.9694 18.9269 18.6829 16.5817 7.71346L16.3431 7.78575C16.396 18.4337 23.904 36.5097 33.06 45.3299C31.028 46.137 28.8429 46.7662 26.5482 47.1415C17.7715 43.6405 11.5242 32.4276 11.5242 20.9411C11.5242 13.4427 13.7948 8.80403 14.2341 7.85471L14.0471 7.78004C13.5157 8.58953 10.1894 13.2258 10.1894 21.3211C10.1894 34.3048 16.5486 44.2289 24.9914 47.3541C22.103 47.6704 19.0634 47.5748 15.945 46.9265L15.8821 47.1244C16.7853 47.4592 19.8494 48.7543 24.5237 48.7543C35.0963 48.7543 42.2434 42.14 45.1205 37.1123L44.9145 36.972Z" fill="white"/>
<path d="M23.4666 0.380524C15.4518 0.380524 6.05396 6.20484 6.05396 11.5288C6.05396 13.5882 7.92493 15.328 11.7972 15.328C20.7865 15.328 29.1381 9.10939 29.1381 4.27387C29.1381 1.72935 26.7112 0.380524 23.4666 0.380524ZM26.6663 4.12357C26.6663 8.19955 18.8929 13.182 12.3948 13.182C9.52382 13.182 7.97263 12.0444 7.97263 10.1671C7.97263 6.03267 15.8344 1.13484 21.9296 1.13484C25.9034 1.13484 26.6663 3.17093 26.6663 4.12357Z" fill="white"/>
<path d="M2.86089 13.9939C2.63558 14.3863 1.7334 16.1651 1.7334 17.9876C1.7334 21.3677 5.12533 24.5058 11.3641 24.5058C23.366 24.5058 37.2323 15.6105 37.2323 7.35343C37.2323 3.647 33.7477 1.63184 31.3284 1.21521L31.283 1.35979C32.0355 1.5995 34.7921 2.88983 34.7921 6.19151C34.7921 12.7706 22.5493 21.7349 10.3542 21.7349C5.68554 21.7349 2.74422 19.4144 2.74422 16.0343C2.74422 14.9651 2.96528 14.2607 3.02385 14.0567L2.86089 13.9939Z" fill="white"/>
<path d="M42.1806 7.97076C42.5098 8.22236 44.4866 9.88129 44.4866 13.0184C44.4866 23.7149 27.842 34.233 13.1269 34.233C4.35164 34.233 0.351324 29.8702 0.528454 25.9964H0.685746C1.02962 28.0082 3.87882 31.6081 11.5592 31.6081C26.2927 31.6081 42.7432 20.7247 42.7432 11.1892C42.7432 9.55359 42.302 8.53436 42.0526 8.08111L42.1806 7.97076Z" fill="white"/>
<path d="M47.7439 17.9567C47.8129 18.1845 48.1714 19.2085 48.1714 20.8122C48.1714 32.711 31.327 42.8976 16.6771 42.8976C9.13699 42.8976 5.1995 39.2098 4.36816 37.7121L4.50231 37.6122C6.58867 39.4495 10.6981 40.8454 15.4939 40.8454C28.4324 40.8454 47.7387 30.9337 47.5663 17.9999L47.7439 17.9567Z" fill="white"/>
</svg>
